<?xml version="1.0" encoding="UTF-8" standalone="no"?>
<!-- Created with Inkscape (http://www.inkscape.org/) -->

<svg
   xmlns:dc="http://purl.org/dc/elements/1.1/"
   xmlns:cc="http://creativecommons.org/ns#"
   xmlns:rdf="http://www.w3.org/1999/02/22-rdf-syntax-ns#"
   xmlns:svg="http://www.w3.org/2000/svg"
   xmlns="http://www.w3.org/2000/svg"
   xmlns:sodipodi="http://sodipodi.sourceforge.net/DTD/sodipodi-0.dtd"
   xmlns:inkscape="http://www.inkscape.org/namespaces/inkscape"
   id="svg2"
   version="1.1"
   inkscape:version="0.47 r22583"
   width="318.8975"
   height="184.2525"
   xml:space="preserve"
   sodipodi:docname="Business_Card.ai"><metadata
     id="metadata8"><rdf:RDF><cc:Work
         rdf:about=""><dc:format>image/svg+xml</dc:format><dc:type
           rdf:resource="http://purl.org/dc/dcmitype/StillImage" /><dc:title></dc:title></cc:Work></rdf:RDF></metadata><defs
     id="defs6"><inkscape:perspective
       sodipodi:type="inkscape:persp3d"
       inkscape:vp_x="0 : 0.5 : 1"
       inkscape:vp_y="0 : 1000 : 0"
       inkscape:vp_z="1 : 0.5 : 1"
       inkscape:persp3d-origin="0.5 : 0.33333333 : 1"
       id="perspective10" /><clipPath
       clipPathUnits="userSpaceOnUse"
       id="clipPath18"><path
         d="m 0,147.402 255.118,0 L 255.118,0 0,0 0,147.402 z"
         id="path20" /></clipPath><clipPath
       clipPathUnits="userSpaceOnUse"
       id="clipPath48"><path
         d="m 0,147.402 255.118,0 L 255.118,0 0,0 0,147.402 z"
         id="path50" /></clipPath><clipPath
       clipPathUnits="userSpaceOnUse"
       id="clipPath318"><path
         d="m 115.683,53.6982 24.597,0 0,-7.6347 -24.597,0 0,7.6347 z"
         id="path320" /></clipPath><clipPath
       clipPathUnits="userSpaceOnUse"
       id="clipPath322"><path
         d="m 115.683,54 24.597,0 0,-7.9365 -24.597,0 0,7.9365 z"
         id="path324" /></clipPath><clipPath
       clipPathUnits="userSpaceOnUse"
       id="clipPath326"><path
         d="m 131.325,53.666 c -6.174,0.334 -12.262,-1.91 -15.642,-5.963 1.336,-0.021 2.522,-0.659 3.276,-1.64 3.059,3.798 8.924,5.776 14.111,5.077 1.467,-0.2 2.795,-0.529 3.988,-0.969 1.028,0.198 2.108,0.286 3.222,0.249 -2.551,1.86 -5.671,3.068 -8.955,3.246"
         id="path328" /></clipPath><linearGradient
       x1="0"
       y1="0"
       x2="1"
       y2="0"
       gradientUnits="userSpaceOnUse"
       gradientTransform="matrix(4.3932953,3.3426971,3.3426971,-4.3932953,123.91357,46.18457)"
       spreadMethod="pad"
       id="linearGradient330"><stop
         style="stop-opacity:1;stop-color:#231f20"
         offset="0"
         id="stop332" /><stop
         style="stop-opacity:1;stop-color:#ffffff"
         offset="1"
         id="stop334" /></linearGradient><mask
       maskUnits="userSpaceOnUse"
       x="0"
       y="0"
       width="1"
       height="1"
       id="mask336"><g
         id="g338"><g
           clip-path="url(#clipPath318)"
           id="g340"><path
             d="m 115.683,54 24.598,0 0,-7.937 -24.598,0 0,7.937 z"
             style="fill:#000000;fill-opacity:1;fill-rule:nonzero;stroke:none"
             id="path342" /><g
             id="g344"><g
               id="g346" /><g
               id="g348"><g
                 clip-path="url(#clipPath322)"
                 id="g350"><g
                   id="g352"><g
                     clip-path="url(#clipPath326)"
                     id="g354"><g
                       id="g356"><g
                         id="g358"><path
                           d="m 131.325,53.666 c -6.174,0.334 -12.262,-1.91 -15.642,-5.963 1.336,-0.021 2.522,-0.659 3.276,-1.64 3.059,3.798 8.924,5.776 14.111,5.077 1.467,-0.2 2.795,-0.529 3.988,-0.969 1.028,0.198 2.108,0.286 3.222,0.249 -2.551,1.86 -5.671,3.068 -8.955,3.246"
                           style="fill:url(#linearGradient330);stroke:none"
                           id="path360" /></g></g></g></g></g></g></g></g></g></mask><clipPath
       clipPathUnits="userSpaceOnUse"
       id="clipPath366"><path
         d="m 115.683,53.6982 24.597,0 0,-7.6347 -24.597,0 0,7.6347 z"
         id="path368" /></clipPath><clipPath
       clipPathUnits="userSpaceOnUse"
       id="clipPath370"><path
         d="m 131.325,53.666 c -6.174,0.334 -12.262,-1.91 -15.642,-5.963 1.336,-0.021 2.522,-0.659 3.276,-1.64 3.059,3.798 8.924,5.776 14.111,5.077 1.467,-0.2 2.795,-0.529 3.988,-0.969 1.028,0.198 2.108,0.286 3.222,0.249 -2.551,1.86 -5.671,3.068 -8.955,3.246"
         id="path372" /></clipPath><linearGradient
       x1="0"
       y1="0"
       x2="1"
       y2="0"
       gradientUnits="userSpaceOnUse"
       gradientTransform="matrix(4.3932953,3.3426971,3.3426971,-4.3932953,123.91357,46.18457)"
       spreadMethod="pad"
       id="linearGradient374"><stop
         style="stop-opacity:1;stop-color:#f7b1d0"
         offset="0"
         id="stop376" /><stop
         style="stop-opacity:1;stop-color:#e40477"
         offset="1"
         id="stop378" /></linearGradient><clipPath
       clipPathUnits="userSpaceOnUse"
       id="clipPath398"><path
         d="m 113.585,47.189 c 0.602,0.328 1.293,0.516 2.029,0.516 l 0,0 c 0.802,0 1.552,-0.223 2.191,-0.608 l 0,0 c 3.476,3.939 8.887,5.648 14.539,4.916 l 0,0 c 1.629,-0.211 3.102,-0.553 4.431,-1.005 l 0,0 c 1.138,0.19 2.336,0.269 3.571,0.224 l 0,0 c -2.848,1.883 -6.315,3.117 -9.961,3.326 l 0,0 c -0.431,0.024 -0.86,0.036 -1.284,0.036 l 0,0 c -6.675,10e-4 -12.48,-2.965 -15.516,-7.405 m -2.025,-4.784 c -0.003,-0.014 -0.003,-0.027 -0.005,-0.042 l 0,0 0.022,-0.003 c -0.006,0.019 -0.011,0.035 -0.016,0.053 l 0,0 C 111.56,42.41 111.56,42.407 111.56,42.405"
         id="path400" /></clipPath><linearGradient
       x1="0"
       y1="0"
       x2="1"
       y2="0"
       gradientUnits="userSpaceOnUse"
       gradientTransform="matrix(28.790527,0,0,-28.790527,111.55518,48.477539)"
       spreadMethod="pad"
       id="linearGradient404"><stop
         style="stop-opacity:1;stop-color:#fdebf6"
         offset="0"
         id="stop406" /><stop
         style="stop-opacity:1;stop-color:#ee31a2"
         offset="0.375504"
         id="stop408" /><stop
         style="stop-opacity:1;stop-color:#ec1f9a"
         offset="1"
         id="stop410" /></linearGradient><clipPath
       clipPathUnits="userSpaceOnUse"
       id="clipPath418"><path
         d="m 0,147.402 255.118,0 L 255.118,0 0,0 0,147.402 z"
         id="path420" /></clipPath><clipPath
       clipPathUnits="userSpaceOnUse"
       id="clipPath426"><path
         d="m 103.997,56.4512 27.914,0 0,-15.7617 -27.914,0 0,15.7617 z"
         id="path428" /></clipPath><clipPath
       clipPathUnits="userSpaceOnUse"
       id="clipPath430"><path
         d="m 103.997,56.5947 27.914,0 0,-15.9052 -27.914,0 0,15.9052 z"
         id="path432" /></clipPath><clipPath
       clipPathUnits="userSpaceOnUse"
       id="clipPath434"><path
         d="m 103.998,40.843 c 0.71,8.469 7.189,15.353 15.324,15.602 4.909,0.15 9.625,-2.602 12.589,-6.762 -0.335,-0.293 -0.636,0.621 -0.932,0.291 -2.123,2.797 -5.366,3.451 -9.798,3.742 -6.63,0.434 -12.985,-5.504 -13.56,-13.027 l -3.624,0.106 c 0,0.015 0,0.031 0.001,0.048"
         id="path436" /></clipPath><linearGradient
       x1="0"
       y1="0"
       x2="1"
       y2="0"
       gradientUnits="userSpaceOnUse"
       gradientTransform="matrix(3.2650299,7.7330017,7.7330017,-3.2650299,117.35596,45.005859)"
       spreadMethod="pad"
       id="linearGradient438"><stop
         style="stop-opacity:1;stop-color:#231f20"
         offset="0"
         id="stop440" /><stop
         style="stop-opacity:1;stop-color:#b0aeaf"
         offset="0.338776"
         id="stop442" /><stop
         style="stop-opacity:1;stop-color:#ffffff"
         offset="1"
         id="stop444" /></linearGradient><mask
       maskUnits="userSpaceOnUse"
       x="0"
       y="0"
       width="1"
       height="1"
       id="mask446"><g
         id="g448"><g
           clip-path="url(#clipPath426)"
           id="g450"><path
             d="m 103.997,56.595 27.915,0 0,-15.905 -27.915,0 0,15.905 z"
             style="fill:#000000;fill-opacity:1;fill-rule:nonzero;stroke:none"
             id="path452" /><g
             id="g454"><g
               id="g456" /><g
               id="g458"><g
                 clip-path="url(#clipPath430)"
                 id="g460"><g
                   id="g462"><g
                     clip-path="url(#clipPath434)"
                     id="g464"><g
                       id="g466"><g
                         id="g468"><path
                           d="m 103.998,40.843 c 0.71,8.469 7.189,15.353 15.324,15.602 4.909,0.15 9.625,-2.602 12.589,-6.762 -0.335,-0.293 -0.636,0.621 -0.932,0.291 -2.123,2.797 -5.366,3.451 -9.798,3.742 -6.63,0.434 -12.985,-5.504 -13.56,-13.027 l -3.624,0.106 c 0,0.015 0,0.031 0.001,0.048"
                           style="fill:url(#linearGradient438);stroke:none"
                           id="path470" /></g></g></g></g></g></g></g></g></g></mask><clipPath
       clipPathUnits="userSpaceOnUse"
       id="clipPath476"><path
         d="m 103.997,56.4512 27.914,0 0,-15.7617 -27.914,0 0,15.7617 z"
         id="path478" /></clipPath><clipPath
       clipPathUnits="userSpaceOnUse"
       id="clipPath480"><path
         d="m 103.998,40.843 c 0.71,8.469 7.189,15.353 15.324,15.602 4.909,0.15 9.625,-2.602 12.589,-6.762 -0.335,-0.293 -0.636,0.621 -0.932,0.291 -2.123,2.797 -5.366,3.451 -9.798,3.742 -6.63,0.434 -12.985,-5.504 -13.56,-13.027 l -3.624,0.106 c 0,0.015 0,0.031 0.001,0.048"
         id="path482" /></clipPath><linearGradient
       x1="0"
       y1="0"
       x2="1"
       y2="0"
       gradientUnits="userSpaceOnUse"
       gradientTransform="matrix(3.2650299,7.7330017,7.7330017,-3.2650299,117.35596,45.005859)"
       spreadMethod="pad"
       id="linearGradient484"><stop
         style="stop-opacity:1;stop-color:#ffffff"
         offset="0"
         id="stop486" /><stop
         style="stop-opacity:1;stop-color:#fee60e"
         offset="0.338776"
         id="stop488" /><stop
         style="stop-opacity:1;stop-color:#f89c22"
         offset="1"
         id="stop490" /></linearGradient><clipPath
       clipPathUnits="userSpaceOnUse"
       id="clipPath510"><path
         d="m 98.6753,56.8105 34.5267,0 0,-15.9355 -34.5267,0 0,15.9355 z"
         id="path512" /></clipPath><clipPath
       clipPathUnits="userSpaceOnUse"
       id="clipPath514"><path
         d="m 98.6743,56.9561 34.5277,0 0,-16.0811 -34.5277,0 0,16.0811 z"
         id="path516" /></clipPath><clipPath
       clipPathUnits="userSpaceOnUse"
       id="clipPath518"><path
         d="m 98.676,41.027 c 0.871,8.566 8.808,15.527 18.776,15.779 6.016,0.15 12.118,-2.96 15.75,-7.166 -0.41,-0.296 -0.8,-0.613 -1.164,-0.947 -2.599,2.829 -6.877,5.058 -12.309,5.353 -8.122,0.438 -15.909,-5.565 -16.613,-13.171 l -4.44,0.105 c 0,0.017 -0.002,0.033 0,0.047"
         id="path520" /></clipPath><linearGradient
       x1="0"
       y1="0"
       x2="1"
       y2="0"
       gradientUnits="userSpaceOnUse"
       gradientTransform="matrix(2.8366241,16.07431,16.07431,-2.8366241,115.97559,45.662109)"
       spreadMethod="pad"
       id="linearGradient522"><stop
         style="stop-opacity:1;stop-color:#231f20"
         offset="0"
         id="stop524" /><stop
         style="stop-opacity:1;stop-color:#ffffff"
         offset="0.428574"
         id="stop526" /><stop
         style="stop-opacity:1;stop-color:#ffffff"
         offset="1"
         id="stop528" /></linearGradient><mask
       maskUnits="userSpaceOnUse"
       x="0"
       y="0"
       width="1"
       height="1"
       id="mask530"><g
         id="g532"><g
           clip-path="url(#clipPath510)"
           id="g534"><path
             d="m 98.674,56.956 34.528,0 0,-16.081 -34.528,0 0,16.081 z"
             style="fill:#000000;fill-opacity:1;fill-rule:nonzero;stroke:none"
             id="path536" /><g
             id="g538"><g
               id="g540" /><g
               id="g542"><g
                 clip-path="url(#clipPath514)"
                 id="g544"><g
                   id="g546"><g
                     clip-path="url(#clipPath518)"
                     id="g548"><g
                       id="g550"><g
                         id="g552"><path
                           d="m 98.676,41.027 c 0.871,8.566 8.808,15.527 18.776,15.779 6.016,0.15 12.118,-2.96 15.75,-7.166 -0.41,-0.296 -0.8,-0.613 -1.164,-0.947 -2.599,2.829 -6.877,5.058 -12.309,5.353 -8.122,0.438 -15.909,-5.565 -16.613,-13.171 l -4.44,0.105 c 0,0.017 -0.002,0.033 0,0.047"
                           style="fill:url(#linearGradient522);stroke:none"
                           id="path554" /></g></g></g></g></g></g></g></g></g></mask><clipPath
       clipPathUnits="userSpaceOnUse"
       id="clipPath560"><path
         d="m 98.6753,56.8105 34.5267,0 0,-15.9355 -34.5267,0 0,15.9355 z"
         id="path562" /></clipPath><clipPath
       clipPathUnits="userSpaceOnUse"
       id="clipPath564"><path
         d="m 98.676,41.027 c 0.871,8.566 8.808,15.527 18.776,15.779 6.016,0.15 12.118,-2.96 15.75,-7.166 -0.41,-0.296 -0.8,-0.613 -1.164,-0.947 -2.599,2.829 -6.877,5.058 -12.309,5.353 -8.122,0.438 -15.909,-5.565 -16.613,-13.171 l -4.44,0.105 c 0,0.017 -0.002,0.033 0,0.047"
         id="path566" /></clipPath><linearGradient
       x1="0"
       y1="0"
       x2="1"
       y2="0"
       gradientUnits="userSpaceOnUse"
       gradientTransform="matrix(2.8366241,16.07431,16.07431,-2.8366241,115.97559,45.662109)"
       spreadMethod="pad"
       id="linearGradient568"><stop
         style="stop-opacity:1;stop-color:#ffffff"
         offset="0"
         id="stop570" /><stop
         style="stop-opacity:1;stop-color:#fee60e"
         offset="0.416321"
         id="stop572" /><stop
         style="stop-opacity:1;stop-color:#f9c525"
         offset="0.800003"
         id="stop574" /><stop
         style="stop-opacity:1;stop-color:#f7911a"
         offset="1"
         id="stop576" /></linearGradient><clipPath
       clipPathUnits="userSpaceOnUse"
       id="clipPath596"><path
         d="m 141.254,51.449 c -0.122,-0.004 -0.244,-0.008 -0.365,-0.012 l 0,0 c -1.009,-0.044 -1.978,-0.189 -2.89,-0.419 l 0,0 c -1.374,-0.345 -2.621,-0.885 -3.686,-1.574 l 0,0 c -0.333,-0.215 -0.645,-0.443 -0.94,-0.686 l 0,0 c -0.493,-0.404 -0.93,-0.843 -1.307,-1.312 l 0,0 2.309,0 c 0.025,0.027 0.049,0.053 0.074,0.079 l 0,0 c 0.262,0.268 0.549,0.523 0.856,0.763 l 0,0 c 1.273,1 2.898,1.748 4.624,2.092 l 0,0 c 0.76,0.152 1.537,0.225 2.313,0.209 l 0,0 c 0.079,-0.002 0.156,-0.005 0.235,-0.008 l 0,0 c 3.919,-0.184 6.667,-1.69 8.157,-3.723 l 0,0 0,0.738 c -1.962,2.275 -5.457,3.855 -9.135,3.855 l 0,0 c -0.082,0 -0.163,-10e-4 -0.245,-0.002"
         id="path598" /></clipPath><linearGradient
       x1="0"
       y1="0"
       x2="1"
       y2="0"
       gradientUnits="userSpaceOnUse"
       gradientTransform="matrix(18.567383,0,0,-18.567383,132.06641,49.15332)"
       spreadMethod="pad"
       id="linearGradient602"><stop
         style="stop-opacity:1;stop-color:#d1e5f7"
         offset="0"
         id="stop604" /><stop
         style="stop-opacity:1;stop-color:#1b6ab0"
         offset="0.477554"
         id="stop606" /><stop
         style="stop-opacity:1;stop-color:#1266ac"
         offset="1"
         id="stop608" /></linearGradient><clipPath
       clipPathUnits="userSpaceOnUse"
       id="clipPath616"><path
         d="m 140.825,51.98 c -0.127,-0.002 -0.256,-0.007 -0.382,-0.012 l 0,0 c -1.047,-0.043 -2.053,-0.187 -3.001,-0.417 l 0,0 c -1.427,-0.347 -2.724,-0.887 -3.83,-1.576 l 0,0 c -0.344,-0.214 -0.67,-0.443 -0.975,-0.685 l 0,0 c -0.701,-0.551 -1.296,-1.172 -1.764,-1.844 l 0,0 2.322,0 c 0.172,0.21 0.358,0.414 0.558,0.611 l 0,0 c 0.273,0.268 0.571,0.522 0.89,0.764 l 0,0 c 1.322,0.999 3.01,1.747 4.807,2.092 l 0,0 c 0.786,0.15 1.594,0.225 2.401,0.207 l 0,0 c 0.081,-10e-4 0.163,-0.005 0.244,-0.008 l 0,0 c 4.124,-0.158 6.799,-1.705 8.539,-3.622 l 0,0 -10e-4,0.57 c -2.027,2.308 -5.7,3.923 -9.557,3.923 l 0,0 c -0.084,0 -0.167,-10e-4 -0.251,-0.003"
         id="path618" /></clipPath><linearGradient
       x1="0"
       y1="0"
       x2="1"
       y2="0"
       gradientUnits="userSpaceOnUse"
       gradientTransform="matrix(19.760742,0,0,-19.760742,130.87305,49.713867)"
       spreadMethod="pad"
       id="linearGradient622"><stop
         style="stop-opacity:1;stop-color:#eaf4fb"
         offset="0"
         id="stop624" /><stop
         style="stop-opacity:1;stop-color:#5dabe2"
         offset="0.461533"
         id="stop626" /><stop
         style="stop-opacity:1;stop-color:#56a8e1"
         offset="1"
         id="stop628" /></linearGradient><clipPath
       clipPathUnits="userSpaceOnUse"
       id="clipPath636"><path
         d="m 0,147.402 255.118,0 L 255.118,0 0,0 0,147.402 z"
         id="path638" /></clipPath></defs><sodipodi:namedview
     pagecolor="#ffffff"
     bordercolor="#666666"
     borderopacity="1"
     objecttolerance="10"
     gridtolerance="10"
     guidetolerance="10"
     inkscape:pageopacity="0"
     inkscape:pageshadow="2"
     inkscape:window-width="640"
     inkscape:window-height="504"
     id="namedview4"
     showgrid="false"
     inkscape:zoom="1.280851"
     inkscape:cx="159.44875"
     inkscape:cy="92.126251"
     inkscape:window-x="369"
     inkscape:window-y="489"
     inkscape:window-maximized="0"
     inkscape:current-layer="g12" /><g
     id="g12"
     inkscape:groupmode="layer"
     inkscape:label="Business_Card"
     transform="matrix(1.25,0,0,-1.25,0,184.2525)"><path
       d="m 9.921,137.48 235.276,0 0,-127.56 -235.276,0 0,127.56 z"
       style="fill:none;stroke:#35b6ed;stroke-opacity:1;stroke-width:3;stroke-linecap:square;stroke-linejoin:miter;stroke-miterlimit:4;stroke-dasharray:none"
       id="path30" /></g></svg>